<svg width="109" height="190" viewBox="0 0 109 190" fill="none" xmlns="http://www.w3.org/2000/svg">
<circle cx="5" cy="5" r="5" fill="#E5E7EB"/>
<circle cx="24" cy="5" r="5" fill="#E5E7EB"/>
<circle cx="43" cy="5" r="5" fill="#E5E7EB"/>
<circle cx="62" cy="5" r="5" fill="#E5E7EB"/>
<circle cx="81" cy="5" r="5" fill="#E5E7EB"/>
<circle cx="100" cy="5" r="5" fill="#E5E7EB"/>
<circle cx="5" cy="35" r="5" fill="#E5E7EB"/>
<circle cx="24" cy="35" r="5" fill="#E5E7EB"/>
<circle cx="43" cy="35" r="5" fill="#E5E7EB"/>
<circle cx="62" cy="35" r="5" fill="#E5E7EB"/>
<circle cx="81" cy="35" r="5" fill="#E5E7EB"/>
<circle cx="100" cy="35" r="5" fill="#E5E7EB"/>
<circle cx="5" cy="65" r="5" fill="#E5E7EB"/>
<circle cx="24" cy="65" r="5" fill="#E5E7EB"/>
<circle cx="43" cy="65" r="5" fill="#E5E7EB"/>
<circle cx="62" cy="65" r="5" fill="#E5E7EB"/>
<circle cx="81" cy="65" r="5" fill="#E5E7EB"/>
<circle cx="100" cy="65" r="5" fill="#E5E7EB"/>
<circle cx="5" cy="95" r="5" fill="#E5E7EB"/>
<circle cx="24" cy="95" r="5" fill="#E5E7EB"/>
<circle cx="43" cy="95" r="5" fill="#E5E7EB"/>
<circle cx="62" cy="95" r="5" fill="#E5E7EB"/>
<circle cx="81" cy="95" r="5" fill="#E5E7EB"/>
<circle cx="100" cy="95" r="5" fill="#E5E7EB"/>
<circle cx="5" cy="125" r="5" fill="#E5E7EB"/>
<circle cx="24" cy="125" r="5" fill="#E5E7EB"/>
<circle cx="43" cy="125" r="5" fill="#E5E7EB"/>
<circle cx="62" cy="125" r="5" fill="#E5E7EB"/>
<circle cx="81" cy="125" r="5" fill="#E5E7EB"/>
<circle cx="100" cy="125" r="5" fill="#E5E7EB"/>
<circle cx="5" cy="155" r="5" fill="#E5E7EB"/>
<circle cx="24" cy="155" r="5" fill="#E5E7EB"/>
<circle cx="43" cy="155" r="5" fill="#E5E7EB"/>
<circle cx="62" cy="155" r="5" fill="#E5E7EB"/>
<circle cx="81" cy="155" r="5" fill="#E5E7EB"/>
<circle cx="100" cy="155" r="5" fill="#E5E7EB"/>
<circle cx="5" cy="185" r="5" fill="#E5E7EB"/>
<circle cx="24" cy="185" r="5" fill="#E5E7EB"/>
<circle cx="43" cy="185" r="5" fill="#E5E7EB"/>
<circle cx="62" cy="185" r="5" fill="#E5E7EB"/>
<circle cx="81" cy="185" r="5" fill="#E5E7EB"/>
<circle cx="100" cy="185" r="5" fill="#E5E7EB"/>
</svg>
